<svg xmlns="http://www.w3.org/2000/svg" width="1280" height="720" viewBox="0 0 1280 720">
  <rect x="0" y="0" width="1280" height="720" fill="#F3F6FA"/>
  <rect x="0" y="0" width="1280" height="210" fill="#0F766E"/>
  <rect x="56" y="56" width="1168" height="528" rx="18" fill="#FFFFFF"/>
  <rect x="56" y="56" width="1168" height="120" rx="18" fill="#0B4F4A"/>
  <text x="92" y="115" font-family="Microsoft YaHei, Arial, sans-serif" font-size="34" font-weight="700" fill="#FFFFFF">课程设计现场演示</text>
  <text x="92" y="242" font-family="Microsoft YaHei, Arial, sans-serif" font-size="44" font-weight="700" fill="#152033">基于 Hadoop MapReduce 的</text>
  <text x="92" y="300" font-family="Microsoft YaHei, Arial, sans-serif" font-size="44" font-weight="700" fill="#152033">网站访问量统计分析系统</text>
  <text x="94" y="353" font-family="Microsoft YaHei, Arial, sans-serif" font-size="22" fill="#667085">4 分钟演示：任务要求、核心算法、Web 功能与验收证据</text>
  <rect x="94" y="405" width="170" height="48" rx="12" fill="#E8F3F1"/>
  <text x="128" y="436" font-family="Microsoft YaHei, Arial, sans-serif" font-size="19" font-weight="700" fill="#0F766E">Hadoop</text>
  <rect x="284" y="405" width="190" height="48" rx="12" fill="#E8F1F8"/>
  <text x="318" y="436" font-family="Microsoft YaHei, Arial, sans-serif" font-size="19" font-weight="700" fill="#155E75">MapReduce</text>
  <rect x="494" y="405" width="180" height="48" rx="12" fill="#E8F3F1"/>
  <text x="525" y="436" font-family="Microsoft YaHei, Arial, sans-serif" font-size="19" font-weight="700" fill="#0F766E">Spring Boot</text>
  <rect x="694" y="405" width="145" height="48" rx="12" fill="#FFF1E8"/>
  <text x="733" y="436" font-family="Microsoft YaHei, Arial, sans-serif" font-size="19" font-weight="700" fill="#F97316">MySQL</text>
  <rect x="859" y="405" width="150" height="48" rx="12" fill="#E8F1F8"/>
  <text x="899" y="436" font-family="Microsoft YaHei, Arial, sans-serif" font-size="19" font-weight="700" fill="#155E75">ECharts</text>
  <line x1="94" y1="510" x2="1186" y2="510" stroke="#D9E2EC" stroke-width="2"/>
  <text x="94" y="550" font-family="Microsoft YaHei, Arial, sans-serif" font-size="20" fill="#152033">演示主线：日志数据 → MapReduce 统计 → 数据库存储 → 页面可视化 → 管理维护</text>
  <text x="94" y="628" font-family="Microsoft YaHei, Arial, sans-serif" font-size="16" fill="#667085">01 / 07</text>
  <rect x="930" y="94" width="230" height="56" rx="14" fill="#FFFFFF" fill-opacity="0.14"/>
  <text x="960" y="129" font-family="Microsoft YaHei, Arial, sans-serif" font-size="20" font-weight="700" fill="#FFFFFF">网站访问量系统</text>
</svg>
